<mxfile host="app.diagrams.net" modified="2025-01-27T00:00:00.000Z" agent="5.0" etag="visual-sprint-roadmap" version="24.7.17">
  <diagram name="Sprint Roadmap" id="sprint-roadmap">
    <mxGraphModel dx="1422" dy="794" grid="1" gridSize="10" guides="1" tooltips="1" connect="1" arrows="1" fold="1" page="1" pageScale="1" pageWidth="1169" pageHeight="827" math="0" shadow="0">
      <root>
        <mxCell id="0" />
        <mxCell id="1" parent="0" />
        
        <!-- Title -->
        <mxCell id="title" value="Customer Management System - Sprint Roadmap" style="text;html=1;strokeColor=none;fillColor=none;align=center;verticalAlign=middle;whiteSpace=wrap;rounded=0;fontSize=20;fontStyle=1;" vertex="1" parent="1">
          <mxGeometry x="300" y="20" width="569" height="30" as="geometry" />
        </mxCell>
        
        <!-- Timeline Header -->
        <mxCell id="timeline-header" value="Sep 2025 - Nov 2025" style="text;html=1;strokeColor=none;fillColor=none;align=center;verticalAlign=middle;whiteSpace=wrap;rounded=0;fontSize=14;fontStyle=1;" vertex="1" parent="1">
          <mxGeometry x="450" y="60" width="269" height="20" as="geometry" />
        </mxCell>
        
        <!-- Sprint 1 - Foundation (CURRENT) -->
        <mxCell id="sprint1-box" value="" style="rounded=1;whiteSpace=wrap;html=1;fillColor=#fff2cc;strokeColor=#d6b656;" vertex="1" parent="1">
          <mxGeometry x="50" y="120" width="200" height="120" as="geometry" />
        </mxCell>
        <mxCell id="sprint1-title" value="Sprint 1: Foundation" style="text;html=1;strokeColor=none;fillColor=none;align=center;verticalAlign=middle;whiteSpace=wrap;rounded=0;fontSize=14;fontStyle=1;" vertex="1" parent="1">
          <mxGeometry x="50" y="130" width="200" height="20" as="geometry" />
        </mxCell>
        <mxCell id="sprint1-dates" value="Sep 22 - Oct 5, 2025" style="text;html=1;strokeColor=none;fillColor=none;align=center;verticalAlign=middle;whiteSpace=wrap;rounded=0;fontSize=10;" vertex="1" parent="1">
          <mxGeometry x="50" y="150" width="200" height="15" as="geometry" />
        </mxCell>
        <mxCell id="sprint1-status" value="🔄 CURRENT" style="text;html=1;strokeColor=none;fillColor=none;align=center;verticalAlign=middle;whiteSpace=wrap;rounded=0;fontSize=12;fontStyle=1;fontColor=#f57c00;" vertex="1" parent="1">
          <mxGeometry x="50" y="170" width="200" height="20" as="geometry" />
        </mxCell>
        <mxCell id="sprint1-points" value="102/118 Story Points (86%)" style="text;html=1;strokeColor=none;fillColor=none;align=center;verticalAlign=middle;whiteSpace=wrap;rounded=0;fontSize=10;" vertex="1" parent="1">
          <mxGeometry x="50" y="190" width="200" height="15" as="geometry" />
        </mxCell>
        <mxCell id="sprint1-achievements" value="• Test Infrastructure (15/18)&#xa;• Security Fixes (XSS, Log Injection)&#xa;• Error Boundaries&#xa;• 3 Items Remaining" style="text;html=1;strokeColor=none;fillColor=none;align=left;verticalAlign=middle;whiteSpace=wrap;rounded=0;fontSize=9;" vertex="1" parent="1">
          <mxGeometry x="60" y="205" width="180" height="30" as="geometry" />
        </mxCell>
        
        <!-- Sprint 2 - Test Infrastructure & UX (PLANNED) -->
        <mxCell id="sprint2-box" value="" style="rounded=1;whiteSpace=wrap;html=1;fillColor=#e1d5e7;strokeColor=#9673a6;" vertex="1" parent="1">
          <mxGeometry x="280" y="120" width="200" height="120" as="geometry" />
        </mxCell>
        <mxCell id="sprint2-title" value="Sprint 2: Test Infrastructure &amp; UX" style="text;html=1;strokeColor=none;fillColor=none;align=center;verticalAlign=middle;whiteSpace=wrap;rounded=0;fontSize=14;fontStyle=1;" vertex="1" parent="1">
          <mxGeometry x="280" y="130" width="200" height="20" as="geometry" />
        </mxCell>
        <mxCell id="sprint2-dates" value="Oct 6 - Oct 19, 2025" style="text;html=1;strokeColor=none;fillColor=none;align=center;verticalAlign=middle;whiteSpace=wrap;rounded=0;fontSize=10;" vertex="1" parent="1">
          <mxGeometry x="280" y="150" width="200" height="15" as="geometry" />
        </mxCell>
        <mxCell id="sprint2-status" value="📋 PLANNED" style="text;html=1;strokeColor=none;fillColor=none;align=center;verticalAlign=middle;whiteSpace=wrap;rounded=0;fontSize=12;fontStyle=1;fontColor=#7b1fa2;" vertex="1" parent="1">
          <mxGeometry x="280" y="170" width="200" height="20" as="geometry" />
        </mxCell>
        <mxCell id="sprint2-points" value="35 Story Points" style="text;html=1;strokeColor=none;fillColor=none;align=center;verticalAlign=middle;whiteSpace=wrap;rounded=0;fontSize=10;" vertex="1" parent="1">
          <mxGeometry x="280" y="190" width="200" height="15" as="geometry" />
        </mxCell>
        <mxCell id="sprint2-goals" value="• Error Handling Security&#xa;• Mobile Customer Cards&#xa;• Loading States&#xa;• Snapshot Tests" style="text;html=1;strokeColor=none;fillColor=none;align=left;verticalAlign=middle;whiteSpace=wrap;rounded=0;fontSize=9;" vertex="1" parent="1">
          <mxGeometry x="290" y="205" width="180" height="30" as="geometry" />
        </mxCell>
        
        <!-- Sprint 3 - Production Features (PLANNED) -->
        <mxCell id="sprint3-box" value="" style="rounded=1;whiteSpace=wrap;html=1;fillColor=#e1d5e7;strokeColor=#9673a6;" vertex="1" parent="1">
          <mxGeometry x="510" y="120" width="200" height="120" as="geometry" />
        </mxCell>
        <mxCell id="sprint3-title" value="Sprint 3: Production Features" style="text;html=1;strokeColor=none;fillColor=none;align=center;verticalAlign=middle;whiteSpace=wrap;rounded=0;fontSize=14;fontStyle=1;" vertex="1" parent="1">
          <mxGeometry x="510" y="130" width="200" height="20" as="geometry" />
        </mxCell>
        <mxCell id="sprint3-dates" value="Oct 20 - Nov 2, 2025" style="text;html=1;strokeColor=none;fillColor=none;align=center;verticalAlign=middle;whiteSpace=wrap;rounded=0;fontSize=10;" vertex="1" parent="1">
          <mxGeometry x="510" y="150" width="200" height="15" as="geometry" />
        </mxCell>
        <mxCell id="sprint3-status" value="📋 PLANNED" style="text;html=1;strokeColor=none;fillColor=none;align=center;verticalAlign=middle;whiteSpace=wrap;rounded=0;fontSize=12;fontStyle=1;fontColor=#7b1fa2;" vertex="1" parent="1">
          <mxGeometry x="510" y="170" width="200" height="20" as="geometry" />
        </mxCell>
        <mxCell id="sprint3-points" value="30 Story Points" style="text;html=1;strokeColor=none;fillColor=none;align=center;verticalAlign=middle;whiteSpace=wrap;rounded=0;fontSize=10;" vertex="1" parent="1">
          <mxGeometry x="510" y="190" width="200" height="15" as="geometry" />
        </mxCell>
        <mxCell id="sprint3-goals" value="• Accessibility (WCAG 2.1)&#xa;• Performance Optimization&#xa;• Application Monitoring&#xa;• CI/CD Reliability" style="text;html=1;strokeColor=none;fillColor=none;align=left;verticalAlign=middle;whiteSpace=wrap;rounded=0;fontSize=9;" vertex="1" parent="1">
          <mxGeometry x="520" y="205" width="180" height="30" as="geometry" />
        </mxCell>
        
        <!-- Sprint 4 - Advanced Features (PLANNED) -->
        <mxCell id="sprint4-box" value="" style="rounded=1;whiteSpace=wrap;html=1;fillColor=#f8cecc;strokeColor=#b85450;" vertex="1" parent="1">
          <mxGeometry x="740" y="120" width="200" height="120" as="geometry" />
        </mxCell>
        <mxCell id="sprint4-title" value="Sprint 4: Advanced Features" style="text;html=1;strokeColor=none;fillColor=none;align=center;verticalAlign=middle;whiteSpace=wrap;rounded=0;fontSize=14;fontStyle=1;" vertex="1" parent="1">
          <mxGeometry x="740" y="130" width="200" height="20" as="geometry" />
        </mxCell>
        <mxCell id="sprint4-dates" value="Nov 3 - Nov 16, 2025" style="text;html=1;strokeColor=none;fillColor=none;align=center;verticalAlign=middle;whiteSpace=wrap;rounded=0;fontSize=10;" vertex="1" parent="1">
          <mxGeometry x="740" y="150" width="200" height="15" as="geometry" />
        </mxCell>
        <mxCell id="sprint4-status" value="📋 PLANNED" style="text;html=1;strokeColor=none;fillColor=none;align=center;verticalAlign=middle;whiteSpace=wrap;rounded=0;fontSize=12;fontStyle=1;fontColor=#c62828;" vertex="1" parent="1">
          <mxGeometry x="740" y="170" width="200" height="20" as="geometry" />
        </mxCell>
        <mxCell id="sprint4-points" value="32 Story Points" style="text;html=1;strokeColor=none;fillColor=none;align=center;verticalAlign=middle;whiteSpace=wrap;rounded=0;fontSize=10;" vertex="1" parent="1">
          <mxGeometry x="740" y="190" width="200" height="15" as="geometry" />
        </mxCell>
        <mxCell id="sprint4-goals" value="• Security Hardening&#xa;• Backup &amp; Recovery&#xa;• Advanced Search&#xa;• Performance Thresholds" style="text;html=1;strokeColor=none;fillColor=none;align=left;verticalAlign=middle;whiteSpace=wrap;rounded=0;fontSize=9;" vertex="1" parent="1">
          <mxGeometry x="750" y="205" width="180" height="30" as="geometry" />
        </mxCell>
        
        <!-- Sprint 5 - Final Polish (PLANNED) -->
        <mxCell id="sprint5-box" value="" style="rounded=1;whiteSpace=wrap;html=1;fillColor=#dae8fc;strokeColor=#6c8ebf;" vertex="1" parent="1">
          <mxGeometry x="970" y="120" width="200" height="120" as="geometry" />
        </mxCell>
        <mxCell id="sprint5-title" value="Sprint 5: Final Polish" style="text;html=1;strokeColor=none;fillColor=none;align=center;verticalAlign=middle;whiteSpace=wrap;rounded=0;fontSize=14;fontStyle=1;" vertex="1" parent="1">
          <mxGeometry x="970" y="130" width="200" height="20" as="geometry" />
        </mxCell>
        <mxCell id="sprint5-dates" value="Nov 17 - Nov 30, 2025" style="text;html=1;strokeColor=none;fillColor=none;align=center;verticalAlign=middle;whiteSpace=wrap;rounded=0;fontSize=10;" vertex="1" parent="1">
          <mxGeometry x="970" y="150" width="200" height="15" as="geometry" />
        </mxCell>
        <mxCell id="sprint5-status" value="📋 PLANNED" style="text;html=1;strokeColor=none;fillColor=none;align=center;verticalAlign=middle;whiteSpace=wrap;rounded=0;fontSize=12;fontStyle=1;fontColor=#1565c0;" vertex="1" parent="1">
          <mxGeometry x="970" y="170" width="200" height="20" as="geometry" />
        </mxCell>
        <mxCell id="sprint5-points" value="25 Story Points" style="text;html=1;strokeColor=none;fillColor=none;align=center;verticalAlign=middle;whiteSpace=wrap;rounded=0;fontSize=10;" vertex="1" parent="1">
          <mxGeometry x="970" y="190" width="200" height="15" as="geometry" />
        </mxCell>
        <mxCell id="sprint5-goals" value="• Bulk Operations&#xa;• Complete Documentation&#xa;• Final Testing&#xa;• Production Deployment" style="text;html=1;strokeColor=none;fillColor=none;align=left;verticalAlign=middle;whiteSpace=wrap;rounded=0;fontSize=9;" vertex="1" parent="1">
          <mxGeometry x="980" y="205" width="180" height="30" as="geometry" />
        </mxCell>
        
        <!-- Progress Arrows -->
        <mxCell id="arrow1" value="" style="endArrow=classic;html=1;rounded=0;strokeWidth=2;strokeColor=#82b366;" edge="1" parent="1">
          <mxGeometry width="50" height="50" relative="1" as="geometry">
            <mxPoint x="250" y="180" as="sourcePoint" />
            <mxPoint x="280" y="180" as="targetPoint" />
          </mxGeometry>
        </mxCell>
        <mxCell id="arrow2" value="" style="endArrow=classic;html=1;rounded=0;strokeWidth=2;strokeColor=#d6b656;" edge="1" parent="1">
          <mxGeometry width="50" height="50" relative="1" as="geometry">
            <mxPoint x="480" y="180" as="sourcePoint" />
            <mxPoint x="510" y="180" as="targetPoint" />
          </mxGeometry>
        </mxCell>
        <mxCell id="arrow3" value="" style="endArrow=classic;html=1;rounded=0;strokeWidth=2;strokeColor=#9673a6;" edge="1" parent="1">
          <mxGeometry width="50" height="50" relative="1" as="geometry">
            <mxPoint x="710" y="180" as="sourcePoint" />
            <mxPoint x="740" y="180" as="targetPoint" />
          </mxGeometry>
        </mxCell>
        <mxCell id="arrow4" value="" style="endArrow=classic;html=1;rounded=0;strokeWidth=2;strokeColor=#b85450;" edge="1" parent="1">
          <mxGeometry width="50" height="50" relative="1" as="geometry">
            <mxPoint x="940" y="180" as="sourcePoint" />
            <mxPoint x="970" y="180" as="targetPoint" />
          </mxGeometry>
        </mxCell>
        
        <!-- Key Metrics Section -->
        <mxCell id="metrics-title" value="Key Metrics &amp; Status" style="text;html=1;strokeColor=none;fillColor=none;align=center;verticalAlign=middle;whiteSpace=wrap;rounded=0;fontSize=16;fontStyle=1;" vertex="1" parent="1">
          <mxGeometry x="50" y="280" width="200" height="30" as="geometry" />
        </mxCell>
        
        <!-- Security Status -->
        <mxCell id="security-box" value="" style="rounded=1;whiteSpace=wrap;html=1;fillColor=#d5e8d4;strokeColor=#82b366;" vertex="1" parent="1">
          <mxGeometry x="50" y="320" width="280" height="80" as="geometry" />
        </mxCell>
        <mxCell id="security-title" value="🛡️ Security Status" style="text;html=1;strokeColor=none;fillColor=none;align=left;verticalAlign=middle;whiteSpace=wrap;rounded=0;fontSize=14;fontStyle=1;" vertex="1" parent="1">
          <mxGeometry x="60" y="330" width="260" height="20" as="geometry" />
        </mxCell>
        <mxCell id="security-status" value="✅ ZERO CRITICAL VULNERABILITIES&#xa;✅ XSS &amp; Log Injection Fixed&#xa;✅ OWASP Compliance Achieved&#xa;💰 $500,000+ Breach Costs Prevented" style="text;html=1;strokeColor=none;fillColor=none;align=left;verticalAlign=middle;whiteSpace=wrap;rounded=0;fontSize=10;" vertex="1" parent="1">
          <mxGeometry x="60" y="350" width="260" height="40" as="geometry" />
        </mxCell>
        
        <!-- Progress Status -->
        <mxCell id="progress-box" value="" style="rounded=1;whiteSpace=wrap;html=1;fillColor=#fff2cc;strokeColor=#d6b656;" vertex="1" parent="1">
          <mxGeometry x="350" y="320" width="280" height="80" as="geometry" />
        </mxCell>
        <mxCell id="progress-title" value="📊 Progress Status" style="text;html=1;strokeColor=none;fillColor=none;align=left;verticalAlign=middle;whiteSpace=wrap;rounded=0;fontSize=14;fontStyle=1;" vertex="1" parent="1">
          <mxGeometry x="360" y="330" width="260" height="20" as="geometry" />
        </mxCell>
        <mxCell id="progress-status" value="📈 43% Complete (18/40 issues)&#xa;📊 102/244 Story Points (42%)&#xa;🧪 85%+ Test Coverage Maintained&#xa;🚀 On Track for Nov 2025 Release" style="text;html=1;strokeColor=none;fillColor=none;align=left;verticalAlign=middle;whiteSpace=wrap;rounded=0;fontSize=10;" vertex="1" parent="1">
          <mxGeometry x="360" y="350" width="260" height="40" as="geometry" />
        </mxCell>
        
        <!-- Quality Status -->
        <mxCell id="quality-box" value="" style="rounded=1;whiteSpace=wrap;html=1;fillColor=#e1d5e7;strokeColor=#9673a6;" vertex="1" parent="1">
          <mxGeometry x="650" y="320" width="280" height="80" as="geometry" />
        </mxCell>
        <mxCell id="quality-title" value="⚡ Quality Status" style="text;html=1;strokeColor=none;fillColor=none;align=left;verticalAlign=middle;whiteSpace=wrap;rounded=0;fontSize=14;fontStyle=1;" vertex="1" parent="1">
          <mxGeometry x="660" y="330" width="260" height="20" as="geometry" />
        </mxCell>
        <mxCell id="quality-status" value="🟢 CI/CD Pipeline Stable&#xa;📊 A Grade (94/100) Overall&#xa;🧪 92 Tests Passing&#xa;📱 Mobile-First Design Planned" style="text;html=1;strokeColor=none;fillColor=none;align=left;verticalAlign=middle;whiteSpace=wrap;rounded=0;fontSize=10;" vertex="1" parent="1">
          <mxGeometry x="660" y="350" width="260" height="40" as="geometry" />
        </mxCell>
        
        <!-- Release Milestones -->
        <mxCell id="milestones-title" value="🎯 Release Milestones" style="text;html=1;strokeColor=none;fillColor=none;align=center;verticalAlign=middle;whiteSpace=wrap;rounded=0;fontSize=16;fontStyle=1;" vertex="1" parent="1">
          <mxGeometry x="50" y="430" width="200" height="30" as="geometry" />
        </mxCell>
        
        <!-- v0.1.0 -->
        <mxCell id="v010-box" value="" style="rounded=1;whiteSpace=wrap;html=1;fillColor=#d5e8d4;strokeColor=#82b366;" vertex="1" parent="1">
          <mxGeometry x="50" y="470" width="180" height="60" as="geometry" />
        </mxCell>
        <mxCell id="v010-title" value="v0.1.0 - Foundation" style="text;html=1;strokeColor=none;fillColor=none;align=center;verticalAlign=middle;whiteSpace=wrap;rounded=0;fontSize=12;fontStyle=1;" vertex="1" parent="1">
          <mxGeometry x="50" y="480" width="180" height="15" as="geometry" />
        </mxCell>
        <mxCell id="v010-status" value="✅ RELEASED (Oct 5, 2025)" style="text;html=1;strokeColor=none;fillColor=none;align=center;verticalAlign=middle;whiteSpace=wrap;rounded=0;fontSize=10;fontColor=#2e7d32;" vertex="1" parent="1">
          <mxGeometry x="50" y="495" width="180" height="15" as="geometry" />
        </mxCell>
        <mxCell id="v010-desc" value="Test Infrastructure + Security" style="text;html=1;strokeColor=none;fillColor=none;align=center;verticalAlign=middle;whiteSpace=wrap;rounded=0;fontSize=9;" vertex="1" parent="1">
          <mxGeometry x="50" y="510" width="180" height="15" as="geometry" />
        </mxCell>
        
        <!-- v0.2.0 -->
        <mxCell id="v020-box" value="" style="rounded=1;whiteSpace=wrap;html=1;fillColor=#fff2cc;strokeColor=#d6b656;" vertex="1" parent="1">
          <mxGeometry x="250" y="470" width="180" height="60" as="geometry" />
        </mxCell>
        <mxCell id="v020-title" value="v0.2.0 - Test &amp; UX" style="text;html=1;strokeColor=none;fillColor=none;align=center;verticalAlign=middle;whiteSpace=wrap;rounded=0;fontSize=12;fontStyle=1;" vertex="1" parent="1">
          <mxGeometry x="250" y="480" width="180" height="15" as="geometry" />
        </mxCell>
        <mxCell id="v020-status" value="📋 PLANNED (Oct 19, 2025)" style="text;html=1;strokeColor=none;fillColor=none;align=center;verticalAlign=middle;whiteSpace=wrap;rounded=0;fontSize=10;fontColor=#7b1fa2;" vertex="1" parent="1">
          <mxGeometry x="250" y="495" width="180" height="15" as="geometry" />
        </mxCell>
        <mxCell id="v020-desc" value="Complete Test Infrastructure + UX" style="text;html=1;strokeColor=none;fillColor=none;align=center;verticalAlign=middle;whiteSpace=wrap;rounded=0;fontSize=9;" vertex="1" parent="1">
          <mxGeometry x="250" y="510" width="180" height="15" as="geometry" />
        </mxCell>
        
        <!-- v0.3.0 -->
        <mxCell id="v030-box" value="" style="rounded=1;whiteSpace=wrap;html=1;fillColor=#e1d5e7;strokeColor=#9673a6;" vertex="1" parent="1">
          <mxGeometry x="450" y="470" width="180" height="60" as="geometry" />
        </mxCell>
        <mxCell id="v030-title" value="v0.3.0 - Production Ready" style="text;html=1;strokeColor=none;fillColor=none;align=center;verticalAlign=middle;whiteSpace=wrap;rounded=0;fontSize=12;fontStyle=1;" vertex="1" parent="1">
          <mxGeometry x="450" y="480" width="180" height="15" as="geometry" />
        </mxCell>
        <mxCell id="v030-status" value="📋 PLANNED (Nov 2, 2025)" style="text;html=1;strokeColor=none;fillColor=none;align=center;verticalAlign=middle;whiteSpace=wrap;rounded=0;fontSize=10;fontColor=#7b1fa2;" vertex="1" parent="1">
          <mxGeometry x="450" y="495" width="180" height="15" as="geometry" />
        </mxCell>
        <mxCell id="v030-desc" value="Accessibility + Performance" style="text;html=1;strokeColor=none;fillColor=none;align=center;verticalAlign=middle;whiteSpace=wrap;rounded=0;fontSize=9;" vertex="1" parent="1">
          <mxGeometry x="450" y="510" width="180" height="15" as="geometry" />
        </mxCell>
        
        <!-- v1.0.0 -->
        <mxCell id="v100-box" value="" style="rounded=1;whiteSpace=wrap;html=1;fillColor=#dae8fc;strokeColor=#6c8ebf;" vertex="1" parent="1">
          <mxGeometry x="650" y="470" width="180" height="60" as="geometry" />
        </mxCell>
        <mxCell id="v100-title" value="v1.0.0 - Full Release" style="text;html=1;strokeColor=none;fillColor=none;align=center;verticalAlign=middle;whiteSpace=wrap;rounded=0;fontSize=12;fontStyle=1;" vertex="1" parent="1">
          <mxGeometry x="650" y="480" width="180" height="15" as="geometry" />
        </mxCell>
        <mxCell id="v100-status" value="🎉 PLANNED (Nov 30, 2025)" style="text;html=1;strokeColor=none;fillColor=none;align=center;verticalAlign=middle;whiteSpace=wrap;rounded=0;fontSize=10;fontColor=#1565c0;" vertex="1" parent="1">
          <mxGeometry x="650" y="495" width="180" height="15" as="geometry" />
        </mxCell>
        <mxCell id="v100-desc" value="Advanced Features + Polish" style="text;html=1;strokeColor=none;fillColor=none;align=center;verticalAlign=middle;whiteSpace=wrap;rounded=0;fontSize=9;" vertex="1" parent="1">
          <mxGeometry x="650" y="510" width="180" height="15" as="geometry" />
        </mxCell>
        
        <!-- ROI Information -->
        <mxCell id="roi-box" value="" style="rounded=1;whiteSpace=wrap;html=1;fillColor=#f8cecc;strokeColor=#b85450;" vertex="1" parent="1">
          <mxGeometry x="50" y="560" width="780" height="60" as="geometry" />
        </mxCell>
        <mxCell id="roi-title" value="💰 Financial Impact &amp; ROI" style="text;html=1;strokeColor=none;fillColor=none;align=center;verticalAlign=middle;whiteSpace=wrap;rounded=0;fontSize=14;fontStyle=1;" vertex="1" parent="1">
          <mxGeometry x="50" y="570" width="780" height="20" as="geometry" />
        </mxCell>
        <mxCell id="roi-details" value="Total Investment: $89,600-119,300 | Expected ROI: 400-500% | Security Breach Prevention: $500,000+ | Completion: November 30, 2025" style="text;html=1;strokeColor=none;fillColor=none;align=center;verticalAlign=middle;whiteSpace=wrap;rounded=0;fontSize=12;" vertex="1" parent="1">
          <mxGeometry x="50" y="590" width="780" height="20" as="geometry" />
        </mxCell>
        
      </root>
    </mxGraphModel>
  </diagram>
</mxfile>